<mxfile host="app.diagrams.net" modified="2023-11-12T19:56:21.063Z" agent="Mozilla/5.0 (Windows NT 10.0; Win64; x64) AppleWebKit/537.36 (KHTML, like Gecko) Chrome/119.0.0.0 Safari/537.36" etag="KVzdm3D0JQg7ypbrkDVc" version="22.1.0" type="google">
  <diagram name="Page-1" id="dsbth9FugsuTvTL9pPrC">
    <mxGraphModel grid="0" page="1" gridSize="10" guides="1" tooltips="1" connect="1" arrows="1" fold="1" pageScale="1" pageWidth="850" pageHeight="1100" math="0" shadow="0">
      <root>
        <mxCell id="0" />
        <mxCell id="1" parent="0" />
        <mxCell id="h-BGbt3lnMVjKLU3yRQG-1" value="" style="swimlane;whiteSpace=wrap;html=1;startSize=110;gradientDirection=north;swimlaneFillColor=#a2aebe;shadow=1;gradientColor=#8433db;fillColor=#6f86e4;" vertex="1" parent="1">
          <mxGeometry x="3554" y="-948" width="856" height="512" as="geometry">
            <mxRectangle x="1186" y="-8" width="50" height="110" as="alternateBounds" />
          </mxGeometry>
        </mxCell>
        <mxCell id="h-BGbt3lnMVjKLU3yRQG-2" value="" style="rounded=1;whiteSpace=wrap;html=1;fillColor=#9999FF;fontColor=#9999ff;shadow=1;" vertex="1" parent="h-BGbt3lnMVjKLU3yRQG-1">
          <mxGeometry x="30" y="312" width="188" height="179" as="geometry" />
        </mxCell>
        <mxCell id="h-BGbt3lnMVjKLU3yRQG-3" value="" style="rounded=1;whiteSpace=wrap;html=1;fillColor=#9999FF;fontColor=#9999ff;shadow=1;" vertex="1" parent="h-BGbt3lnMVjKLU3yRQG-1">
          <mxGeometry x="31" y="125" width="186" height="166" as="geometry" />
        </mxCell>
        <mxCell id="h-BGbt3lnMVjKLU3yRQG-4" value="&lt;b&gt;&lt;font style=&quot;font-size: 30px;&quot;&gt;LOGO&lt;/font&gt;&lt;/b&gt;" style="rounded=0;whiteSpace=wrap;html=1;" vertex="1" parent="h-BGbt3lnMVjKLU3yRQG-1">
          <mxGeometry x="20" y="20" width="160" height="40" as="geometry" />
        </mxCell>
        <mxCell id="h-BGbt3lnMVjKLU3yRQG-5" value="Search" style="strokeWidth=1;shadow=0;dashed=0;align=center;html=1;shape=mxgraph.mockup.forms.searchBox;strokeColor=#999999;mainText=;strokeColor2=#008cff;fontColor=#666666;fontSize=17;align=left;spacingLeft=3;rounded=0;labelBackgroundColor=none;comic=1;" vertex="1" parent="h-BGbt3lnMVjKLU3yRQG-1">
          <mxGeometry x="572" y="26.75" width="220" height="30" as="geometry" />
        </mxCell>
        <mxCell id="h-BGbt3lnMVjKLU3yRQG-6" value="&lt;font style=&quot;font-size: 35px;&quot; color=&quot;#ffffff&quot;&gt;Sample Collector&lt;/font&gt;" style="text;html=1;align=center;verticalAlign=middle;resizable=0;points=[];autosize=1;strokeColor=none;fillColor=none;" vertex="1" parent="h-BGbt3lnMVjKLU3yRQG-1">
          <mxGeometry x="257" y="14.75" width="285" height="54" as="geometry" />
        </mxCell>
        <mxCell id="h-BGbt3lnMVjKLU3yRQG-7" value="" style="sketch=0;pointerEvents=1;shadow=0;dashed=0;html=1;strokeColor=none;fillColor=#ffffff;labelPosition=center;verticalLabelPosition=bottom;verticalAlign=top;outlineConnect=0;align=center;shape=mxgraph.office.concepts.home;" vertex="1" parent="h-BGbt3lnMVjKLU3yRQG-1">
          <mxGeometry x="190" y="24.5" width="30" height="31" as="geometry" />
        </mxCell>
        <mxCell id="h-BGbt3lnMVjKLU3yRQG-8" value="" style="rounded=0;whiteSpace=wrap;html=1;fillColor=#dae8fc;strokeColor=#6c8ebf;" vertex="1" parent="h-BGbt3lnMVjKLU3yRQG-1">
          <mxGeometry y="77" width="849" height="30" as="geometry" />
        </mxCell>
        <mxCell id="h-BGbt3lnMVjKLU3yRQG-9" value="Button 1" style="rounded=0;whiteSpace=wrap;html=1;fillColor=#9999ff;" vertex="1" parent="h-BGbt3lnMVjKLU3yRQG-1">
          <mxGeometry x="55" y="82" width="90" height="20" as="geometry" />
        </mxCell>
        <mxCell id="h-BGbt3lnMVjKLU3yRQG-10" value="Button 2" style="rounded=0;whiteSpace=wrap;html=1;fillColor=#9999ff;" vertex="1" parent="h-BGbt3lnMVjKLU3yRQG-1">
          <mxGeometry x="284" y="82" width="90" height="20" as="geometry" />
        </mxCell>
        <mxCell id="h-BGbt3lnMVjKLU3yRQG-11" value="" style="rounded=0;whiteSpace=wrap;html=1;fillColor=#9999ff;" vertex="1" parent="h-BGbt3lnMVjKLU3yRQG-1">
          <mxGeometry x="489" y="82" width="90" height="20" as="geometry" />
        </mxCell>
        <mxCell id="h-BGbt3lnMVjKLU3yRQG-12" value="Button 3" style="text;html=1;points=[];align=left;verticalAlign=top;spacingTop=-4;fontSize=14;fontFamily=Verdana;" vertex="1" parent="h-BGbt3lnMVjKLU3yRQG-1">
          <mxGeometry x="504" y="80" width="57" height="19" as="geometry" />
        </mxCell>
        <mxCell id="h-BGbt3lnMVjKLU3yRQG-13" value="" style="rounded=0;whiteSpace=wrap;html=1;fillColor=#9999ff;" vertex="1" parent="h-BGbt3lnMVjKLU3yRQG-1">
          <mxGeometry x="707" y="82" width="90" height="20" as="geometry" />
        </mxCell>
        <mxCell id="h-BGbt3lnMVjKLU3yRQG-14" value="Button 4" style="text;html=1;points=[];align=left;verticalAlign=top;spacingTop=-4;fontSize=14;fontFamily=Verdana;" vertex="1" parent="h-BGbt3lnMVjKLU3yRQG-1">
          <mxGeometry x="722" y="80" width="60" height="20.5" as="geometry" />
        </mxCell>
        <mxCell id="h-BGbt3lnMVjKLU3yRQG-15" value="" style="rounded=1;whiteSpace=wrap;html=1;fillColor=#9999FF;fontColor=#9999ff;shadow=1;" vertex="1" parent="h-BGbt3lnMVjKLU3yRQG-1">
          <mxGeometry x="242" y="125" width="602" height="371" as="geometry" />
        </mxCell>
        <mxCell id="h-BGbt3lnMVjKLU3yRQG-16" value="" style="sketch=0;aspect=fixed;pointerEvents=1;shadow=0;dashed=0;html=1;strokeColor=none;labelPosition=center;verticalLabelPosition=bottom;verticalAlign=top;align=center;fillColor=#00188D;shape=mxgraph.mscae.enterprise.settings" vertex="1" parent="h-BGbt3lnMVjKLU3yRQG-1">
          <mxGeometry x="800.5" y="20" width="43.5" height="43.5" as="geometry" />
        </mxCell>
        <mxCell id="h-BGbt3lnMVjKLU3yRQG-17" value="&lt;font style=&quot;font-size: 22px;&quot;&gt;Coordinates&amp;nbsp;&lt;/font&gt;" style="text;html=1;align=center;verticalAlign=middle;resizable=0;points=[];autosize=1;strokeColor=none;fillColor=none;fontStyle=1" vertex="1" parent="h-BGbt3lnMVjKLU3yRQG-1">
          <mxGeometry x="48" y="325" width="152" height="38" as="geometry" />
        </mxCell>
        <mxCell id="h-BGbt3lnMVjKLU3yRQG-18" value="" style="sketch=0;points=[[0,0,0],[0.25,0,0],[0.5,0,0],[0.75,0,0],[1,0,0],[0,1,0],[0.25,1,0],[0.5,1,0],[0.75,1,0],[1,1,0],[0,0.25,0],[0,0.5,0],[0,0.75,0],[1,0.25,0],[1,0.5,0],[1,0.75,0]];outlineConnect=0;fontColor=#232F3E;fillColor=#9999ff;strokeColor=#ffffff;dashed=0;verticalLabelPosition=bottom;verticalAlign=top;align=center;html=1;fontSize=12;fontStyle=0;aspect=fixed;shape=mxgraph.aws4.resourceIcon;resIcon=mxgraph.aws4.containers;" vertex="1" parent="h-BGbt3lnMVjKLU3yRQG-1">
          <mxGeometry x="74" y="136" width="100" height="100" as="geometry" />
        </mxCell>
        <mxCell id="h-BGbt3lnMVjKLU3yRQG-19" value="&lt;font size=&quot;1&quot; style=&quot;&quot;&gt;&lt;b style=&quot;font-size: 18px;&quot;&gt;Container Capacity&lt;/b&gt;&lt;/font&gt;" style="text;html=1;align=center;verticalAlign=middle;resizable=0;points=[];autosize=1;strokeColor=none;fillColor=none;" vertex="1" parent="h-BGbt3lnMVjKLU3yRQG-1">
          <mxGeometry x="32" y="245" width="182" height="34" as="geometry" />
        </mxCell>
        <mxCell id="h-BGbt3lnMVjKLU3yRQG-20" value="" style="verticalLabelPosition=bottom;shadow=0;dashed=0;align=center;html=1;verticalAlign=top;strokeWidth=1;shape=mxgraph.mockup.misc.progressBar;fillColor=#cccccc;strokeColor=default;fillColor2=#99ddff;barPos=64.5;rotation=0;gradientColor=#de0202;" vertex="1" parent="h-BGbt3lnMVjKLU3yRQG-1">
          <mxGeometry x="62.13" y="230" width="121.75" height="20" as="geometry" />
        </mxCell>
        <mxCell id="h-BGbt3lnMVjKLU3yRQG-21" value="&lt;font style=&quot;font-size: 20px;&quot;&gt;Longitude: _____&lt;/font&gt;" style="text;html=1;align=center;verticalAlign=middle;resizable=0;points=[];autosize=1;strokeColor=none;fillColor=none;fontStyle=1" vertex="1" parent="h-BGbt3lnMVjKLU3yRQG-1">
          <mxGeometry x="37" y="379" width="182" height="36" as="geometry" />
        </mxCell>
        <mxCell id="h-BGbt3lnMVjKLU3yRQG-22" value="&lt;font style=&quot;font-size: 20px;&quot;&gt;Latitude :&amp;nbsp;_______&lt;/font&gt;" style="text;html=1;align=center;verticalAlign=middle;resizable=0;points=[];autosize=1;strokeColor=none;fillColor=none;fontStyle=1" vertex="1" parent="h-BGbt3lnMVjKLU3yRQG-1">
          <mxGeometry x="32" y="426" width="191" height="36" as="geometry" />
        </mxCell>
        <mxCell id="h-BGbt3lnMVjKLU3yRQG-23" value="&lt;font style=&quot;font-size: 30px;&quot;&gt;Initializing Sample Collection&lt;/font&gt;" style="text;html=1;align=center;verticalAlign=middle;resizable=0;points=[];autosize=1;strokeColor=none;fillColor=none;fontStyle=1" vertex="1" parent="h-BGbt3lnMVjKLU3yRQG-1">
          <mxGeometry x="336" y="136" width="433" height="48" as="geometry" />
        </mxCell>
        <mxCell id="h-BGbt3lnMVjKLU3yRQG-24" value="" style="shape=image;html=1;verticalAlign=top;verticalLabelPosition=bottom;labelBackgroundColor=#ffffff;imageAspect=0;aspect=fixed;image=https://cdn2.iconfinder.com/data/icons/wanpix-construction-worker-1/64/Artboard_25-128.png" vertex="1" parent="h-BGbt3lnMVjKLU3yRQG-1">
          <mxGeometry x="332" y="196" width="105" height="105" as="geometry" />
        </mxCell>
        <mxCell id="h-BGbt3lnMVjKLU3yRQG-25" value="&lt;font color=&quot;#ffffff&quot; style=&quot;font-size: 30px;&quot;&gt;Drilling Initiated&lt;/font&gt;" style="text;html=1;align=center;verticalAlign=middle;resizable=0;points=[];autosize=1;strokeColor=none;fillColor=none;fontStyle=1" vertex="1" parent="h-BGbt3lnMVjKLU3yRQG-1">
          <mxGeometry x="458" y="219" width="245" height="48" as="geometry" />
        </mxCell>
        <mxCell id="h-BGbt3lnMVjKLU3yRQG-26" value="" style="rounded=1;whiteSpace=wrap;html=1;fillColor=none;" vertex="1" parent="h-BGbt3lnMVjKLU3yRQG-1">
          <mxGeometry x="336" y="192" width="422.5" height="117" as="geometry" />
        </mxCell>
        <mxCell id="h-BGbt3lnMVjKLU3yRQG-27" value="" style="rounded=1;whiteSpace=wrap;html=1;fillColor=none;" vertex="1" parent="h-BGbt3lnMVjKLU3yRQG-1">
          <mxGeometry x="336" y="325" width="422.5" height="117" as="geometry" />
        </mxCell>
        <mxCell id="h-BGbt3lnMVjKLU3yRQG-28" value="" style="html=1;whiteSpace=wrap;shape=isoCube2;backgroundOutline=1;isoAngle=15;fillColor=default;gradientColor=none;" vertex="1" parent="h-BGbt3lnMVjKLU3yRQG-1">
          <mxGeometry x="362" y="351" width="70" height="75" as="geometry" />
        </mxCell>
        <mxCell id="h-BGbt3lnMVjKLU3yRQG-29" value="" style="shape=flexArrow;endArrow=classic;html=1;rounded=0;fillColor=default;gradientColor=default;gradientDirection=north;" edge="1" parent="h-BGbt3lnMVjKLU3yRQG-1">
          <mxGeometry width="50" height="50" relative="1" as="geometry">
            <mxPoint x="396.40999999999985" y="332" as="sourcePoint" />
            <mxPoint x="396.40999999999985" y="374" as="targetPoint" />
          </mxGeometry>
        </mxCell>
        <mxCell id="h-BGbt3lnMVjKLU3yRQG-30" value="&lt;font color=&quot;#ffffff&quot;&gt;&lt;span style=&quot;font-size: 30px;&quot;&gt;Waiting for &lt;br&gt;Sample Collection&amp;nbsp;&lt;/span&gt;&lt;/font&gt;" style="text;html=1;align=center;verticalAlign=middle;resizable=0;points=[];autosize=1;strokeColor=none;fillColor=none;fontStyle=1" vertex="1" parent="h-BGbt3lnMVjKLU3yRQG-1">
          <mxGeometry x="453" y="341.5" width="286" height="84" as="geometry" />
        </mxCell>
      </root>
    </mxGraphModel>
  </diagram>
</mxfile>
